<?xml version="1.0" encoding="UTF-8" standalone="no"?>
<svg
   xmlns:dc="http://purl.org/dc/elements/1.1/"
   xmlns:cc="http://creativecommons.org/ns#"
   xmlns:rdf="http://www.w3.org/1999/02/22-rdf-syntax-ns#"
   xmlns:svg="http://www.w3.org/2000/svg"
   xmlns="http://www.w3.org/2000/svg"
   xmlns:sodipodi="http://sodipodi.sourceforge.net/DTD/sodipodi-0.dtd"
   xmlns:inkscape="http://www.inkscape.org/namespaces/inkscape"
   version="1.1"
   width="512"
   height="512"
   x="0"
   y="0"
   viewBox="0 0 52 52"
   style="enable-background:new 0 0 512 512"
   xml:space="preserve"
   class=""
   id="svg36"
   sodipodi:docname="Icone Vermelho.svg"
   inkscape:version="1.0.1 (3bc2e813f5, 2020-09-07)"><metadata
     id="metadata42"><rdf:RDF><cc:Work
         rdf:about=""><dc:format>image/svg+xml</dc:format><dc:type
           rdf:resource="http://purl.org/dc/dcmitype/StillImage" /><dc:title></dc:title></cc:Work></rdf:RDF></metadata><defs
     id="defs40" /><sodipodi:namedview
     pagecolor="#ffffff"
     bordercolor="#666666"
     borderopacity="1"
     objecttolerance="10"
     gridtolerance="10"
     guidetolerance="10"
     inkscape:pageopacity="0"
     inkscape:pageshadow="2"
     inkscape:window-width="1920"
     inkscape:window-height="1017"
     id="namedview38"
     showgrid="false"
     inkscape:zoom="1.6162671"
     inkscape:cx="256"
     inkscape:cy="256"
     inkscape:window-x="1358"
     inkscape:window-y="-8"
     inkscape:window-maximized="1"
     inkscape:current-layer="svg36" /><g
     id="g34">
<path
   style=""
   d="M38.853,5.324L38.853,5.324c-7.098-7.098-18.607-7.098-25.706,0h0  C6.751,11.72,6.031,23.763,11.459,31L26,52l14.541-21C45.969,23.763,45.249,11.72,38.853,5.324z M26.177,24c-3.314,0-6-2.686-6-6  s2.686-6,6-6s6,2.686,6,6S29.491,24,26.177,24z"
   fill="#224e33"
   data-original="#1081e0"
   class=""
   id="path2" />
<g
   id="g4">
</g>
<g
   id="g6">
</g>
<g
   id="g8">
</g>
<g
   id="g10">
</g>
<g
   id="g12">
</g>
<g
   id="g14">
</g>
<g
   id="g16">
</g>
<g
   id="g18">
</g>
<g
   id="g20">
</g>
<g
   id="g22">
</g>
<g
   id="g24">
</g>
<g
   id="g26">
</g>
<g
   id="g28">
</g>
<g
   id="g30">
</g>
<g
   id="g32">
</g>
</g><path
     style="fill:#ff0000;stroke:#fdfcf8;stroke-width:0.556839;stroke-opacity:0;paint-order:fill markers stroke;fill-opacity:1"
     d="M 182.37308,405.07812 C 142.04894,346.87131 107.57055,296.96457 105.75444,294.17426 101.11463,287.04554 92.65461,269.5547 89.235397,260.02161 84.096233,245.69313 80.301095,228.66286 78.343089,211.14355 77.366297,202.40368 77.355382,177.95578 78.324167,168.76194 79.499653,157.6065 81.399906,147.07291 84.295562,135.66098 95.736044,90.573434 119.96177,55.335463 156.38775,30.79796 194.44824,5.1594149 241.31449,-4.8715313 286.31677,2.9888061 c 35.57476,6.2136761 67.27362,22.2432089 93.117,47.0875609 15.54942,14.948319 27.63277,32.199379 36.82664,52.576343 8.88054,19.68251 14.92204,42.64165 17.39609,66.10923 0.97585,9.25638 0.9681,33.00616 -0.0137,42.07226 -1.91437,17.6771 -5.65949,34.62187 -10.87137,49.18741 -3.64491,10.18636 -12.69399,28.54367 -17.84178,36.19452 -9.13023,13.56971 -148.44186,214.39616 -148.82302,214.53772 -0.2293,0.0852 -33.40939,-47.46892 -73.73352,-105.67573 z m 90.09628,-170.42736 c 31.90077,-8.08883 50.81087,-40.14685 42.65249,-72.30812 -4.30913,-16.98709 -15.91439,-31.053 -31.94294,-38.71578 -9.0048,-4.30492 -13.51193,-5.22103 -25.63214,-5.20994 -9.68211,0.009 -10.95905,0.14419 -16.06668,1.70274 -21.91019,6.68573 -37.33858,23.35954 -41.85287,45.23135 -3.81172,18.46784 1.72457,38.34727 14.49594,52.05133 7.56037,8.11249 15.86908,13.32421 26.42298,16.57405 10.19854,3.14042 21.27482,3.3744 31.92322,0.67437 z"
     id="path867"
     transform="scale(0.1015625)" /></svg>
